<?xml version="1.0" encoding="UTF-8" standalone="no"?>
<!-- Created with Inkscape (http://www.inkscape.org/) -->

<svg
   xmlns:dc="http://purl.org/dc/elements/1.1/"
   xmlns:cc="http://creativecommons.org/ns#"
   xmlns:rdf="http://www.w3.org/1999/02/22-rdf-syntax-ns#"
   xmlns:svg="http://www.w3.org/2000/svg"
   xmlns="http://www.w3.org/2000/svg"
   xmlns:sodipodi="http://sodipodi.sourceforge.net/DTD/sodipodi-0.dtd"
   xmlns:inkscape="http://www.inkscape.org/namespaces/inkscape"
   width="480"
   height="480"
   viewBox="0 0 127 127"
   version="1.1"
   id="svg8"
   inkscape:version="0.92.1 r15371"
   sodipodi:docname="spider-web2.svg"
   inkscape:export-filename="D:\Users\Igor\Images\Federizer\spider-web.png"
   inkscape:export-xdpi="72.800003"
   inkscape:export-ydpi="72.800003">
  <defs
     id="defs2" />
  <sodipodi:namedview
     id="base"
     pagecolor="#ffffff"
     bordercolor="#666666"
     borderopacity="1.0"
     inkscape:pageopacity="0.0"
     inkscape:pageshadow="2"
     inkscape:zoom="0.98994949"
     inkscape:cx="223.94444"
     inkscape:cy="202.43661"
     inkscape:document-units="mm"
     inkscape:current-layer="layer1"
     showgrid="false"
     units="px"
     width="480px"
     inkscape:window-width="1920"
     inkscape:window-height="1027"
     inkscape:window-x="-8"
     inkscape:window-y="-8"
     inkscape:window-maximized="1" />
  <metadata
     id="metadata5">
    <rdf:RDF>
      <cc:Work
         rdf:about="">
        <dc:format>image/svg+xml</dc:format>
        <dc:type
           rdf:resource="http://purl.org/dc/dcmitype/StillImage" />
        <dc:title></dc:title>
      </cc:Work>
    </rdf:RDF>
  </metadata>
  <g
     inkscape:label="Layer 1"
     inkscape:groupmode="layer"
     id="layer1"
     transform="translate(0,-170)"
     style="display:inline;opacity:0.75">
    <path
       style="opacity:0.5;fill:none;fill-rule:evenodd;stroke:#000000;stroke-width:3.9987402;stroke-miterlimit:4;stroke-dasharray:none;stroke-opacity:0.74509805"
       d="m 205.5957,82.777344 c -32.52394,29.163966 -69.27423,53.112416 -109.417966,72.749996 -4.587859,41.24493 -11.281891,88.62603 -26.929687,128.20508 34.845943,43.15591 51.794013,75.69041 68.003903,101.72656 41.96211,6.68197 81.26862,14.1558 119.4336,24.75196 31.0496,-25.39845 60.84404,-47.47914 94.03711,-63.25586 6.43366,-31.02071 14.12275,-70.34907 22.57031,-110.66211 l -46.77539,7.29883 c -4.63888,23.8584 -9.20509,47.9796 -13.83789,75.58008 -24.32203,13.33211 -42.66549,29.07441 -63.29297,44.26171 -28.91763,-6.90997 -55.59827,-12.92663 -84.34961,-16.02343 -14.03367,-17.96331 -27.41389,-43.57704 -49.01172,-70.97657 8.2892,-24.67104 13.70302,-59.24984 18.20703,-93.11914 28.30533,-13.75132 54.15885,-32.40627 78.66211,-53.76172 32.96341,11.79756 67.02348,18.11181 101.89063,20.39063 17.42318,33.98176 37.28212,61.87412 58.50781,86.34961 l 46.77734,-7.29883 C 390.37468,192.85538 364.65112,153.73758 342.57422,111.88477 296.91471,111.78053 251.25521,101.92897 205.5957,82.777344 Z M 326.51758,243.5918 c -14.08266,-16.71424 -27.33313,-35.09286 -39.51172,-55.61524 -22.27083,-1.26984 -44.54167,-4.67085 -66.8125,-11.64648 -15.98047,14.86563 -31.96094,25.56623 -47.94141,34.75781 -2.65341,20.83991 -4.9764,42.67105 -9.45117,58.04688 14.70365,19.05641 22.81498,30.66981 30.00195,40.27734 20.05929,0.70114 32.87358,5.03138 49.28516,7.24609 12.77879,-9.78887 23.68277,-17.29985 32.62695,-25.24218 l 5.02539,-40.5254 v -0.002 l -46.77539,7.29883 1.82422,11.69531 -25.21289,-8.04492 0.47266,-23.00781 17.44336,-15.72461 31.76758,2.7793 20.48046,25.0039 z"
       transform="matrix(0.26458333,0,0,0.26458333,0,170)"
       id="path4487"
       inkscape:connector-curvature="0"
       sodipodi:nodetypes="ccccccccccccccccccccccccccccccccccccc"
       inkscape:export-xdpi="72.800003"
       inkscape:export-ydpi="72.800003" />
    <path
       style="opacity:0.5;fill:none;stroke:#000000;stroke-width:1.05799997;stroke-linecap:butt;stroke-linejoin:miter;stroke-miterlimit:4;stroke-dasharray:none;stroke-opacity:0.74509805"
       d="M 61.638613,238.3121 -54.517025,151.34732"
       id="path4496"
       inkscape:connector-curvature="0"
       inkscape:export-xdpi="72.800003"
       inkscape:export-ydpi="72.800003"
       sodipodi:nodetypes="cc" />
    <path
       style="opacity:0.5;fill:none;stroke:#000000;stroke-width:1.05799997;stroke-linecap:butt;stroke-linejoin:miter;stroke-miterlimit:4;stroke-dasharray:none;stroke-opacity:0.74509805"
       d="M 61.638613,238.3121 -81.393223,260.44431"
       id="path4498"
       inkscape:connector-curvature="0"
       inkscape:export-xdpi="72.800003"
       inkscape:export-ydpi="72.800003"
       sodipodi:nodetypes="cc" />
    <path
       style="opacity:0.5;fill:none;stroke:#000000;stroke-width:1.05799997;stroke-linecap:butt;stroke-linejoin:miter;stroke-miterlimit:4;stroke-dasharray:none;stroke-opacity:0.74509805"
       d="M 61.638613,238.3121 0.48868322,318.25186"
       id="path4502"
       inkscape:connector-curvature="0"
       inkscape:export-xdpi="72.800003"
       inkscape:export-ydpi="72.800003"
       sodipodi:nodetypes="cc" />
    <path
       style="opacity:0.5;fill:none;stroke:#000000;stroke-width:1.05799997;stroke-linecap:butt;stroke-linejoin:miter;stroke-miterlimit:4;stroke-dasharray:none;stroke-opacity:0.74509805"
       d="m 61.638613,238.3121 12.173631,81.52438"
       id="path4504"
       inkscape:connector-curvature="0"
       inkscape:export-xdpi="72.800003"
       inkscape:export-ydpi="72.800003"
       sodipodi:nodetypes="cc" />
    <path
       style="opacity:0.5;fill:none;stroke:#000000;stroke-width:1.05799997;stroke-linecap:butt;stroke-linejoin:miter;stroke-miterlimit:4;stroke-dasharray:none;stroke-opacity:0.74509805"
       d="m 61.638613,238.3121 c 81.083317,61.09332 108.186897,81.50404 108.186897,81.50404"
       id="path4506"
       inkscape:connector-curvature="0"
       inkscape:export-xdpi="72.800003"
       inkscape:export-ydpi="72.800003"
       sodipodi:nodetypes="cc" />
    <path
       style="opacity:0.5;fill:none;stroke:#000000;stroke-width:1.05799997;stroke-linecap:butt;stroke-linejoin:miter;stroke-miterlimit:4;stroke-dasharray:none;stroke-opacity:0.74509805"
       d="m 111.1436,230.58803 90.83023,-11.89014"
       id="path4508"
       inkscape:connector-curvature="0"
       inkscape:export-xdpi="72.800003"
       inkscape:export-ydpi="72.800003"
       sodipodi:nodetypes="cc" />
    <path
       style="opacity:0.5;fill:none;stroke:#000000;stroke-width:1.05799997;stroke-linecap:butt;stroke-linejoin:miter;stroke-miterlimit:4;stroke-dasharray:none;stroke-opacity:0.74509805"
       d="M 61.638613,238.3121 125.61668,153.74353"
       id="path4510"
       inkscape:connector-curvature="0"
       inkscape:export-xdpi="72.800003"
       inkscape:export-ydpi="72.800003"
       sodipodi:nodetypes="cc" />
    <path
       style="opacity:0.5;fill:none;stroke:#000000;stroke-width:1.05799997;stroke-linecap:butt;stroke-linejoin:miter;stroke-miterlimit:4;stroke-dasharray:none;stroke-opacity:0.74509805"
       d="M 61.638613,238.3121 48.375784,150.00176"
       id="path4512"
       inkscape:connector-curvature="0"
       inkscape:export-xdpi="72.800003"
       inkscape:export-ydpi="72.800003"
       sodipodi:nodetypes="cc" />
  </g>
  <g
     inkscape:groupmode="layer"
     id="layer3"
     inkscape:label="Layer 2"
     style="display:inline"
     sodipodi:insensitive="true">
    <path
       d="m 67.601193,54.894439 -18.95982,6.912299 c -1.30349,0.475234 -1.99702,1.850089 -1.55575,3.060518 l 4.80235,13.209222 c 0.44114,1.210424 1.86884,1.812008 3.17236,1.336774 l 18.95984,-6.912293 c 1.30348,-0.475242 2.00888,-1.854428 1.56759,-3.064865 l -4.8142,-13.204876 c -0.44114,-1.210479 -1.86884,-1.81202 -3.17232,-1.336779 z m 5.61656,15.405701 -18.95983,6.912299 -4.01179,-11.004064 12.15806,4.203561 6.80177,-11.115896 z m -11.57914,-1.98804 -12.19484,-4.304544 18.95982,-6.912292 z"
       id="path4523-4-5-8"
       style="display:inline;fill:#2b4e83;fill-opacity:1;stroke-width:1.68715;stroke-miterlimit:4;stroke-dasharray:none"
       inkscape:connector-curvature="0"
       sodipodi:nodetypes="csccsssssccccccccccc" />
    <path
       style="display:inline;opacity:1;fill:#b7d0fb;fill-opacity:0.98895024;fill-rule:nonzero;stroke:none;stroke-width:1.68715;stroke-linejoin:round;stroke-miterlimit:4;stroke-dasharray:none;stroke-dashoffset:0;stroke-opacity:1;paint-order:markers stroke fill"
       d="m 55.601843,66.143016 -5.94506,-2.106267 4.61862,-1.708587 c 2.54023,-0.939696 6.72626,-2.465831 9.30228,-3.391368 l 4.68366,-1.682832 -3.28623,5.448656 c -1.80744,2.996808 -3.31822,5.470755 -3.35728,5.497679 -0.0378,0.02839 -2.74624,-0.898811 -6.01599,-2.057281 z"
       id="path4527"
       inkscape:connector-curvature="0" />
    <path
       style="display:inline;opacity:1;fill:#b7d0fb;fill-opacity:1;fill-rule:nonzero;stroke:none;stroke-width:1.68715;stroke-linejoin:round;stroke-miterlimit:4;stroke-dasharray:none;stroke-dashoffset:0;stroke-opacity:1;paint-order:markers stroke fill"
       d="m 52.332463,71.702468 c -1.87785,-5.150675 -1.96513,-5.412715 -1.78046,-5.342623 0.10673,0.04248 2.81562,0.977596 6.01949,2.082416 3.71877,1.282423 5.85408,1.972126 5.90509,1.907472 0.0425,-0.05572 1.5377,-2.481611 3.31949,-5.390792 1.78178,-2.909197 3.27363,-5.343814 3.31515,-5.410265 0.0604,-0.0964 0.4747,0.97418 2.04915,5.292706 l 1.9737,5.413553 -9.41346,3.431952 -9.41352,3.431939 z"
       id="path4529"
       inkscape:connector-curvature="0" />
    <path
       style="display:inline;fill:none;stroke:#2b4e83;stroke-width:1.68715;stroke-linecap:butt;stroke-linejoin:miter;stroke-miterlimit:4;stroke-dasharray:none;stroke-opacity:1"
       d="m 53.164203,77.466343 5.69615,-9.82408"
       id="path4550"
       inkscape:connector-curvature="0" />
    <path
       style="display:inline;fill:none;stroke:#2b4e83;stroke-width:1.68715;stroke-linecap:butt;stroke-linejoin:miter;stroke-miterlimit:4;stroke-dasharray:none;stroke-opacity:1"
       d="M 73.969673,69.739034 63.287253,65.886211"
       id="path4550-7"
       inkscape:connector-curvature="0" />
  </g>
</svg>
